<?xml version="1.0" encoding="UTF-8" ?>
<!DOCTYPE svg PUBLIC "-//W3C//DTD SVG 1.1//EN" "http://www.w3.org/Graphics/SVG/1.1/DTD/svg11.dtd">
<svg width="1152pt" height="568pt" viewBox="0 0 1152 568" version="1.1" xmlns="http://www.w3.org/2000/svg">
<g id="#53247fff">
<path fill="#53247f" opacity="1.00" d=" M 818.27 98.27 C 849.57 66.54 881.01 34.96 912.85 3.78 C 913.81 4.30 914.79 4.81 915.78 5.32 C 920.28 34.99 933.47 63.18 953.21 85.80 C 987.15 128.22 1024.55 167.72 1064.27 204.74 C 1091.75 231.28 1120.47 256.54 1147.30 283.80 C 1148.58 284.69 1146.75 285.56 1146.30 286.28 C 1117.22 314.87 1088.93 344.30 1059.43 372.43 C 995.09 436.70 930.56 500.77 866.32 565.14 C 865.30 563.61 864.23 562.12 863.39 560.51 C 860.85 544.32 855.58 528.53 848.08 513.97 C 838.38 493.80 822.54 477.67 808.46 460.58 C 782.47 430.36 755.40 401.04 726.63 373.38 C 695.29 343.22 662.92 314.14 631.61 284.00 C 650.47 264.07 670.53 245.34 689.75 225.75 C 729.57 185.90 769.44 146.11 809.23 106.23 C 811.90 103.19 815.52 101.23 818.27 98.27 M 853.93 125.91 C 832.14 149.75 808.66 172.05 786.75 195.75 C 757.67 225.11 727.86 254.08 699.23 283.69 C 752.22 336.38 807.56 387.18 854.52 445.47 C 864.83 458.07 875.98 470.69 881.38 486.34 C 891.24 478.99 898.31 468.63 907.25 460.25 C 928.96 438.62 950.58 416.91 972.00 395.00 C 984.72 380.77 999.30 368.27 1011.93 353.95 C 1027.71 338.06 1043.29 321.97 1059.27 306.27 C 1065.73 298.00 1073.66 291.05 1081.00 283.57 C 1069.08 273.68 1059.14 261.66 1047.26 251.75 C 1024.50 228.83 1000.65 207.03 978.43 183.57 C 955.67 159.90 934.02 135.14 913.56 109.42 C 907.37 100.73 900.06 92.28 897.58 81.64 C 881.84 95.13 868.58 111.26 853.93 125.91 Z" />
</g>
<g id="#948671ff">
<path fill="#948671" opacity="1.00" d=" M 393.67 28.68 C 402.37 23.68 415.37 30.72 415.07 40.98 C 415.96 47.58 411.51 54.39 405.04 56.07 C 397.84 59.36 390.55 54.21 386.23 48.70 C 383.10 41.26 386.12 32.00 393.67 28.68 Z" />
<path fill="#948671" opacity="1.00" d=" M 504.00 36.01 C 512.33 35.99 520.66 36.00 528.99 36.01 C 529.02 82.33 528.96 128.66 529.02 174.99 C 529.33 190.24 521.16 205.89 506.51 211.68 C 500.65 212.69 495.04 215.38 489.00 215.03 C 465.32 214.95 441.65 215.02 417.97 215.00 C 411.56 214.53 406.12 210.56 400.30 208.44 C 395.07 211.09 389.70 213.50 384.02 214.97 C 354.68 215.05 325.34 214.97 296.01 215.01 C 295.70 223.00 296.80 231.12 295.03 239.00 C 291.67 258.76 276.28 275.56 257.61 282.18 C 252.35 274.68 246.72 267.42 240.86 260.36 C 246.84 257.46 253.74 256.35 258.89 251.89 C 266.24 247.16 270.04 238.46 270.99 230.03 C 271.02 183.36 270.99 136.68 271.00 90.00 C 270.76 88.68 271.58 86.95 273.10 87.05 C 280.73 86.90 288.36 87.05 295.99 87.01 C 296.01 121.34 295.99 155.67 296.01 190.00 C 323.42 190.00 350.83 190.01 378.24 189.99 C 366.50 175.61 352.52 163.21 338.02 151.68 C 338.22 132.71 343.59 112.40 358.84 99.85 C 383.92 79.60 424.62 81.39 446.71 105.31 C 458.14 117.72 462.44 135.14 461.96 151.67 C 447.53 163.34 433.60 175.72 421.65 189.99 C 444.44 190.01 467.23 190.00 490.02 190.00 C 494.57 190.02 498.33 187.23 501.72 184.53 C 502.52 181.71 503.90 179.00 504.00 176.03 C 504.00 129.36 504.00 82.68 504.00 36.01 M 371.49 122.52 C 367.32 127.54 362.97 133.53 364.00 140.46 C 377.87 150.91 388.89 164.57 400.73 177.15 C 411.47 163.47 423.68 150.83 437.03 139.69 C 435.50 133.21 433.04 126.61 427.95 122.06 C 413.37 106.54 385.99 107.31 371.49 122.52 Z" />
<path fill="#948671" opacity="1.00" d=" M 565.01 36.01 C 573.33 35.99 581.66 36.00 589.99 36.01 C 590.02 95.62 589.97 155.24 590.02 214.86 C 581.50 218.99 573.73 224.51 565.05 228.30 C 564.94 164.20 565.02 100.11 565.01 36.01 Z" />
<path fill="#948671" opacity="1.00" d=" M 106.01 87.01 C 114.34 87.00 122.66 86.99 131.00 87.01 C 131.01 121.34 130.99 155.66 131.00 189.99 C 146.68 190.00 162.35 190.00 178.02 190.00 C 185.47 189.96 191.96 183.48 192.00 176.03 C 192.01 146.36 191.99 116.68 192.01 87.01 C 200.33 86.99 208.66 86.99 217.00 87.01 C 217.03 116.00 216.95 145.00 217.03 174.00 C 217.04 190.86 206.52 208.09 189.63 212.60 C 185.03 213.13 180.70 215.24 176.02 215.03 C 161.01 214.97 146.01 215.01 131.01 215.00 C 131.15 226.42 131.49 238.19 126.85 248.88 C 121.41 264.57 107.61 276.49 92.30 282.12 C 87.43 274.42 81.04 267.83 75.92 260.32 C 81.55 257.93 87.46 256.16 92.41 252.41 C 101.05 248.04 104.80 238.10 105.99 229.03 C 106.02 181.69 105.98 134.35 106.01 87.01 Z" />
<path fill="#948671" opacity="1.00" d=" M 151.23 267.00 C 151.59 258.89 158.69 251.56 167.00 251.94 C 176.58 252.10 184.30 262.80 180.86 271.84 C 178.00 281.67 164.02 285.66 156.57 278.50 C 152.52 276.14 152.12 271.11 151.23 267.00 Z" />
<path fill="#948671" opacity="1.00" d=" M 200.36 252.33 C 207.71 250.40 216.68 254.96 218.45 262.58 C 220.58 269.44 217.40 277.72 210.71 280.74 C 201.54 285.70 188.16 277.84 189.94 266.99 C 188.61 260.10 194.50 254.63 200.36 252.33 Z" />
<path fill="#948671" opacity="1.00" d=" M 43.18 322.00 C 46.76 321.98 50.35 322.03 53.93 321.95 C 67.42 353.85 82.27 385.21 96.00 417.01 C 91.03 417.01 86.06 416.96 81.10 417.04 C 76.84 407.75 72.42 398.52 68.73 388.99 C 55.85 388.98 42.98 389.05 30.10 388.96 C 26.19 398.28 22.10 407.52 18.65 417.00 C 13.43 417.01 8.21 416.98 2.98 417.02 C 16.59 386.36 29.06 355.04 42.76 324.52 C 42.86 323.89 43.07 322.63 43.18 322.00 M 48.22 345.54 C 44.67 355.90 39.60 365.66 36.05 376.02 C 44.78 375.96 53.50 376.04 62.22 375.98 C 57.74 365.78 53.71 355.23 48.22 345.54 Z" />
<path fill="#948671" opacity="1.00" d=" M 202.28 324.27 C 210.11 320.91 218.75 322.28 227.01 321.96 C 236.54 321.99 245.02 326.86 254.00 329.30 C 254.00 334.28 254.02 339.25 253.97 344.22 C 250.48 343.98 247.94 341.29 244.72 340.24 C 234.21 335.01 222.06 333.83 210.59 335.59 C 193.29 339.77 181.15 358.67 184.95 375.99 C 186.38 392.90 203.44 405.92 220.00 405.04 C 227.09 404.86 234.69 404.37 241.03 400.89 C 240.96 394.93 241.02 388.97 241.00 383.01 C 235.00 382.98 229.00 383.02 223.01 382.99 C 222.99 378.66 222.99 374.33 223.01 370.00 C 234.00 370.00 245.00 369.99 255.99 370.01 C 256.01 383.29 255.98 396.56 256.01 409.84 C 235.63 419.92 209.21 422.28 189.39 409.59 C 174.86 399.95 166.92 381.72 169.57 364.60 C 171.09 346.25 184.81 329.82 202.28 324.27 Z" />
<path fill="#948671" opacity="1.00" d=" M 103.01 323.01 C 107.67 322.99 112.33 322.99 117.00 323.01 C 117.00 354.34 117.00 385.66 116.99 416.99 C 112.33 417.01 107.67 417.01 103.01 416.99 C 103.00 385.66 103.00 354.34 103.01 323.01 Z" />
<path fill="#948671" opacity="1.00" d=" M 272.01 323.01 C 276.33 322.99 280.66 322.99 284.99 323.01 C 285.00 335.76 285.01 348.51 284.99 361.27 C 288.45 358.01 292.45 355.25 297.11 354.05 C 307.84 349.90 321.16 357.54 323.25 368.81 C 326.80 384.58 324.22 400.96 324.99 416.99 C 320.33 417.01 315.67 417.01 311.01 416.99 C 310.98 403.32 311.02 389.64 311.00 375.97 C 311.06 370.46 306.98 365.70 301.90 364.03 C 294.92 363.32 287.73 367.73 285.10 374.10 C 284.84 388.39 285.09 402.70 284.99 416.99 C 280.66 417.01 276.33 417.01 272.01 416.99 C 272.00 385.66 272.00 354.34 272.01 323.01 Z" />
<path fill="#948671" opacity="1.00" d=" M 524.30 329.01 C 526.76 329.00 529.23 329.00 531.70 329.01 C 534.44 331.50 537.02 335.38 535.27 339.18 C 533.98 343.87 528.46 344.53 524.37 343.97 C 522.96 342.47 521.51 341.02 520.01 339.62 C 519.15 335.43 521.19 331.67 524.30 329.01 Z" />
<path fill="#948671" opacity="1.00" d=" M 433.97 354.95 C 441.10 350.28 450.53 354.91 455.29 360.91 C 452.83 364.47 450.77 368.28 448.84 372.15 C 444.70 369.44 440.58 365.36 435.19 366.10 C 427.65 367.68 423.01 375.62 422.97 382.98 C 423.02 394.31 423.00 405.65 422.99 416.99 C 418.33 417.01 413.67 417.01 409.01 416.99 C 408.99 396.33 408.99 375.67 409.01 355.01 C 413.67 354.99 418.33 354.99 423.00 355.01 C 422.99 358.79 423.02 362.58 422.98 366.37 C 426.31 362.29 429.13 357.41 433.97 354.95 Z" />
<path fill="#948671" opacity="1.00" d=" M 459.01 361.28 C 470.50 348.53 496.62 350.16 501.88 368.09 C 502.28 380.94 501.71 393.84 502.13 406.69 C 504.58 409.98 508.30 405.90 511.00 404.90 C 511.00 407.90 510.99 410.90 511.03 413.90 C 504.44 417.91 493.93 421.19 489.07 412.96 C 482.13 417.37 472.58 420.54 464.97 416.01 C 456.46 411.28 455.40 398.63 461.71 391.72 C 468.89 384.62 479.19 382.64 488.31 379.28 C 490.37 375.96 488.03 371.65 486.80 368.28 C 477.15 362.15 465.67 368.89 459.01 376.35 C 458.97 371.33 459.00 366.31 459.01 361.28 M 472.20 395.19 C 470.42 399.12 470.89 403.28 473.28 406.83 C 478.53 409.27 485.35 408.55 488.99 403.69 C 489.02 398.15 488.98 392.60 489.02 387.06 C 483.12 389.08 477.23 391.45 472.20 395.19 Z" />
<path fill="#948671" opacity="1.00" d=" M 564.98 366.37 C 569.52 360.82 574.35 353.93 582.04 352.99 C 588.36 352.55 593.14 357.15 597.97 360.37 C 594.77 364.24 593.30 369.17 590.37 373.24 C 588.92 368.92 583.76 367.34 579.81 366.09 C 571.77 365.91 566.19 373.74 565.06 381.01 C 564.90 393.00 565.06 405.00 564.99 416.99 C 560.33 417.01 555.67 417.01 551.01 416.99 C 550.99 396.33 551.00 375.67 551.01 355.01 C 555.67 354.99 560.33 354.99 565.00 355.01 C 564.99 358.79 565.01 362.58 564.98 366.37 Z" />
<path fill="#948671" opacity="1.00" d=" M 340.01 355.01 C 344.33 354.99 348.66 354.99 352.99 355.01 C 353.04 367.35 352.95 379.69 353.02 392.03 C 353.80 396.71 353.92 402.82 358.78 405.26 C 365.68 409.50 374.18 405.11 378.97 399.65 C 379.05 384.77 378.97 369.89 379.00 355.01 C 383.67 354.99 388.33 354.99 392.99 355.01 C 393.00 375.67 393.00 396.33 392.99 416.99 C 388.33 417.01 383.66 417.01 379.00 416.99 C 379.00 414.93 379.00 412.86 379.01 410.80 C 374.11 414.57 368.48 418.44 362.00 418.05 C 351.16 419.19 340.71 409.63 340.22 398.82 C 339.69 384.24 340.15 369.61 340.01 355.01 Z" />
<path fill="#948671" opacity="1.00" d=" M 521.00 355.01 C 525.67 354.99 530.33 354.99 534.99 355.01 C 535.00 375.67 535.00 396.33 534.99 416.99 C 530.33 417.01 525.67 417.01 521.01 416.99 C 520.99 396.33 521.00 375.67 521.00 355.01 Z" />
</g>
<g id="#b51a8aff">
<path fill="#b51a8a" opacity="1.00" d=" M 844.89 235.84 C 853.70 238.21 863.01 237.44 871.97 239.03 C 894.33 238.58 917.11 240.51 938.95 235.73 C 934.31 259.11 936.56 283.23 935.97 307.02 C 937.38 314.69 936.74 322.51 938.08 330.20 C 927.88 327.96 917.41 327.78 906.98 328.03 C 896.45 326.46 885.55 326.45 875.02 328.03 C 864.66 327.88 854.20 327.68 844.11 330.22 C 845.74 324.95 846.00 319.42 846.98 314.03 C 847.04 294.69 846.96 275.34 847.01 255.99 C 847.44 249.18 845.23 242.60 844.89 235.84 Z" />
</g>
</svg>
